<svg width="84" height="84" viewBox="0 0 84 84" fill="none" xmlns="http://www.w3.org/2000/svg">
<path d="M53.3 42C53.3 35.8 48.2 30.7 42 30.7C35.7 30.7 30.7 35.8 30.7 42C30.7 48.3 35.8 53.3 42 53.3C48.3 53.3 53.3 48.2 53.3 42ZM34.7 42C34.7 38 38 34.7 42 34.7C46 34.7 49.3 38 49.3 42C49.3 46 46 49.3 42 49.3C38 49.3 34.7 46 34.7 42Z" fill="black"/>
<path d="M81.4 43.5C81.3 43.5 81.3 43.5 81.2 43.5H61C60 43.5 59.2 44.2 59 45.1C57.5 53.3 50.3 59.3 42 59.3C33.6 59.3 26.4 53.3 24.9 45.1C24.7 44.1 23.9 43.5 22.9 43.5H2.8C2.7 43.5 2.7 43.5 2.6 43.5C1.5 43.6 0.700004 44.6 0.800004 45.7C2.7 67.1 20.4 83.3 42 83.3C63.2 83.3 81.3 66.8 83.2 45.6C83.3 44.6 82.5 43.6 81.4 43.5ZM42 79.3C23.6 79.3 7.7 65.5 5.1 47.5H21.4C23.9 56.8 32.3 63.3 42 63.3C51.7 63.3 60.2 56.7 62.6 47.5H78.9C76.2 65.5 60.4 79.3 42 79.3Z" fill="black"/>
<path d="M42 0.700012C20.8 0.700012 2.7 17.2 0.800004 38.4C0.700004 39.5 1.5 40.5 2.6 40.6C2.7 40.6 2.7 40.6 2.8 40.6H23C24 40.6 24.8 39.9 25 39C26.5 30.8 33.7 24.8 42.1 24.8C50.5 24.8 57.6 30.8 59.1 39C59.3 40 60.1 40.6 61.1 40.6H81.3C81.4 40.6 81.4 40.6 81.5 40.6C82.6 40.5 83.4 39.5 83.3 38.4C81.3 17.2 63.2 0.700012 42 0.700012ZM42 20.7C32.3 20.7 23.9 27.3 21.4 36.5H5.1C7.8 18.5 23.6 4.70001 42 4.70001C60.4 4.70001 76.2 18.5 78.9 36.5H62.6C60.1 27.2 51.7 20.7 42 20.7Z" fill="black"/>
</svg>
