<?xml version="1.0" encoding="utf-8"?>
<!-- Generator: Adobe Illustrator 16.0.0, SVG Export Plug-In . SVG Version: 6.00 Build 0)  -->
<!DOCTYPE svg PUBLIC "-//W3C//DTD SVG 1.1//EN" "http://www.w3.org/Graphics/SVG/1.1/DTD/svg11.dtd">
<svg version="1.1" id="Calque_1" xmlns="http://www.w3.org/2000/svg" xmlns:xlink="http://www.w3.org/1999/xlink" x="0px" y="0px"
	 width="1080px" height="312px" viewBox="0 0 1080 312" enable-background="new 0 0 1080 312" xml:space="preserve">
<g>
	<path fill="#3BB4C1" d="M241.692,243.605c-21.118,0-39.404-7.326-54.351-21.773c-15.009-14.503-22.62-32.27-22.62-52.807
		c0-20.451,7.61-38.177,22.62-52.684c14.95-14.446,33.236-21.771,54.351-21.771c21.112,0,39.398,7.325,54.351,21.771
		c15.011,14.51,22.621,32.235,22.621,52.685c0,20.535-7.61,38.302-22.621,52.807C281.094,236.28,262.808,243.605,241.692,243.605z
		 M241.692,107.57c-17.876,0-32.699,5.927-45.316,18.119c-12.552,12.133-18.654,26.308-18.654,43.336
		c0,17.114,6.102,31.33,18.654,43.458c12.615,12.194,27.438,18.122,45.316,18.122c17.876,0,32.699-5.928,45.317-18.121
		c12.553-12.131,18.654-26.346,18.654-43.459c0-10.322-2.243-19.598-6.807-28.005l-7.353-1.213l1.918,12.774
		c0.299,1.988,0.45,4.091,0.45,6.25c0,10.847-3.989,20.208-11.858,27.824c-7.809,7.561-17.354,11.395-28.367,11.395
		c-11.017,0-20.561-3.834-28.368-11.396c-7.867-7.614-11.857-16.976-11.857-27.823c0-10.839,3.984-20.218,11.843-27.874
		c7.81-7.612,17.359-11.472,28.383-11.472c6.626,0,12.783,1.423,18.3,4.23l13.308,6.771l1.145-5.38
		C273.913,113.309,259.279,107.57,241.692,107.57z M242.11,134.86c-2.8,1.277-5.38,3.075-7.772,5.408
		c-5.327,5.189-7.916,11.262-7.916,18.563c0,7.293,2.584,13.339,7.899,18.483c5.375,5.206,11.696,7.735,19.326,7.735
		c7.628,0,13.949-2.53,19.325-7.734c0.814-0.788,1.563-1.597,2.25-2.428c-2.967,1.01-6.136,1.518-9.494,1.518
		c-7.642,0-14.284-2.605-19.745-7.745c-5.572-5.237-8.399-11.679-8.399-19.142C237.584,144.049,239.103,139.14,242.11,134.86z
		 M265.729,135.76c-4.293,0-7.846,1.364-10.86,4.171c-2.923,2.721-4.284,5.767-4.284,9.589c0,3.838,1.368,6.911,4.306,9.672
		c3.015,2.837,6.559,4.215,10.839,4.215c4.277,0,7.842-1.398,10.897-4.274c2.132-2.017,3.448-4.29,4.012-6.938l2.914-13.697
		l-15.609-2.574C267.285,135.814,266.54,135.76,265.729,135.76z M290.507,133.159l5.116,2.603c-1.714-2.48-3.648-4.882-5.809-7.211
		L290.507,133.159z"/>
	<path fill="#3BB4C1" d="M464.423,278.97l-94.34-64.594l0.338,54.803l-47.762,5.648l-8.56-158.344l-22.336,2.524l-1.326-29.398
		l65.016-11.335l1.357,49.688l42.728-53.354l46.886,40.805l-53.977,61.937l76.401,49.764L464.423,278.97z M326.336,102.017
		l8.556,158.273l22.457-2.656l-0.418-68.018l96.436,66.027l1.867-21.885l-82.411-53.678l55.254-63.403L401.22,93.305l-56.437,70.472
		l-1.914-70.111l-38.93,6.786l0.184,4.076L326.336,102.017z"/>
	<path fill="#3BB4C1" d="M514.274,235.299h-0.009c-24.699,0-43.752-5.862-56.63-17.425c-13.058-11.724-19.816-29.234-20.09-52.044
		v-0.126c0.18-24.521,6.078-43.382,17.532-56.061c6.703-7.42,15.28-12.739,25.642-15.925l-13.058-18.82l41.142-43.583l28.366,43.822
		L500.619,90.33c1.903-0.105,3.847-0.16,5.83-0.164l0.13,0.001c17.69,0.317,32.109,4.465,42.856,12.328
		c10.971,8.025,18.211,19.917,21.521,35.342l0.84,3.914l-48.638,39.197c12.652-1.477,21.941-6.776,28.264-16.08l4.506-6.632
		l34.163,35.544l-3.039,4.374c-17.063,24.56-41.547,37.057-72.769,37.145H514.274z M450.546,165.735
		c0.239,18.993,5.546,33.281,15.774,42.465c10.419,9.354,26.547,14.098,47.94,14.099c25.212-0.074,44.556-9.017,58.967-27.305
		l-15.987-16.633c-9.956,10.635-23.99,16.016-41.829,16.016c-0.001,0,0.001,0,0,0c-3.552,0-7.311-0.217-11.174-0.645l-15.525-1.721
		l68.591-55.276c-6.182-22.059-22.871-33.051-50.891-33.569c-18.859,0.05-32.497,5.02-41.688,15.192
		C455.48,128.591,450.71,144.529,450.546,165.735z M484.355,76.152l3.693,5.325l29.738-12.361L506.89,52.282L484.355,76.152z
		 M483.909,182.409l-3.953-5.384c-11.608-15.81-10.125-31.948,4.177-45.446l0.381-0.36l0.436-0.294
		c6.928-4.692,14.054-7.072,21.178-7.072c8.926,0,17.752,3.723,26.234,11.063l5.991,5.186L483.909,182.409z M492.674,141.397
		c-7.446,7.198-9.312,14.228-5.698,22.165l30.275-23.527c-3.782-2.115-7.504-3.183-11.124-3.183
		C501.724,136.853,497.317,138.341,492.674,141.397z"/>
	<path fill="#3BB4C1" d="M654.484,259.854l7.079-185.96l54.033,6.484l-8.075,117.897l69.76-7.076l4.142,63.719L654.484,259.854z
		 M674.018,88.481l-6.008,157.837l99.575-3.872l-2.401-36.954l-71.686,7.271l8.284-120.95L674.018,88.481z"/>
	<path fill="#3BB4C1" d="M845.614,235.299h-0.009c-24.699,0-43.752-5.862-56.63-17.425c-13.058-11.724-19.816-29.234-20.09-52.044
		v-0.126c0.18-24.521,6.078-43.382,17.533-56.061c11.635-12.879,28.919-19.432,51.37-19.478l0.13,0.001
		c17.69,0.317,32.11,4.465,42.857,12.328c10.971,8.025,18.211,19.917,21.521,35.343l0.84,3.913l-48.639,39.197
		c12.653-1.477,21.943-6.776,28.266-16.08l4.506-6.632l34.163,35.544l-3.039,4.374c-17.063,24.56-41.547,37.057-72.77,37.145
		H845.614z M781.886,165.737c0.239,18.993,5.546,33.279,15.774,42.463c10.419,9.354,26.548,14.098,47.938,14.099
		c25.215-0.073,44.558-9.016,58.97-27.305l-15.987-16.633c-9.957,10.635-23.991,16.016-41.83,16.016c-0.001,0,0.001,0,0,0
		c-3.552,0-7.311-0.217-11.174-0.645l-15.525-1.721l68.591-55.276c-6.181-22.059-22.87-33.051-50.892-33.569
		c-18.858,0.05-32.495,5.02-41.686,15.192C786.82,128.591,782.05,144.53,781.886,165.737z M815.251,182.409l-3.954-5.384
		c-11.608-15.809-10.126-31.947,4.175-45.445l0.382-0.361l0.436-0.294c6.929-4.692,14.054-7.072,21.178-7.072
		c8.927,0,17.753,3.723,26.234,11.063l5.991,5.186L815.251,182.409z M824.014,141.397c-7.445,7.199-9.312,14.229-5.698,22.165
		l30.275-23.527c-3.781-2.115-7.503-3.183-11.124-3.183C833.063,136.853,828.658,138.341,824.014,141.397z"/>
	<path fill="#3BB4C1" d="M997.344,273.922l-31.656-55.781l-32.597,55.509l-47.688-33.384l52.144-71.553l-34.314-60.403
		l38.713-29.885l29.029,44.205l32.68-44.764l39.38,8.25l-45.313,77.3l51.254,77.914L997.344,273.922z M965.879,192.141
		l36.047,63.516l28.908-18.248l-48.414-73.598l40.259-68.677l-13.474-2.822l-38.797,53.141L938.781,97.29l-18.67,14.412
		l32.885,57.886l-49.284,67.627l25.299,17.71L965.879,192.141z"/>
	<g id="XMLID_2_">
		<g>
			<polygon fill="#FFFFFF" points="675.91,90.56 675.48,121.97 607.82,120.33 608.54,162.15 653.08,167.08 651.28,180.99 
				606.03,187.09 603.73,242.51 585.4,247.43 582.68,118.71 571.16,118.05 569.56,101.82 			"/>
			<path fill="#3BB4C1" d="M689.12,76.09l-0.83,59.2l-67.24-1.63l0.29,16.82l46.32,5.14l-4.75,36.92l-44.34,5.979l-2.24,54.07
				l-43.58,11.69L569.93,131l-10.62-0.6l-3.949-40.15L689.12,76.09z M675.48,121.97l0.43-31.41L569.56,101.82l1.601,16.229
				l11.52,0.66l2.721,128.72l18.33-4.92l2.3-55.42l45.25-6.1l1.8-13.91l-44.54-4.93l-0.72-41.82L675.48,121.97z"/>
		</g>
	</g>
	<g id="XMLID_3_">
		<g>
			<path fill="#FFFFFF" d="M170.65,136.84c0.89,31.88-20.341,53.58-64.891,66.33l-4.81,1.38l1.109,57.49L85.37,263.27L64.27,126.67
				l-20.14,3.36l-4.05-35.21c29.05-5.08,52.93-7.65,71.04-7.65c16.229,0,27.87,2.01,34.59,5.97
				C160.46,101.84,168.62,116.14,170.65,136.84z M107.22,173.68c26.91-9.029,39.511-20.66,38.521-35.54l-0.09-0.75
				c-2.091-11.29-8.23-16.029-13.011-18.029c-6.29-2.63-16.35-2.391-32.34,0.62l-5.79,1.09l4.9,55.229L107.22,173.68z"/>
			<path fill="#3BB4C1" d="M183.63,136.23c1.15,37.029-22.22,63.25-69.49,78l1.16,59.859l-40.95,3.04L53.43,141.66L32.78,145.1
				L25.77,84.19l5.99-1.091c32.54-5.93,59.24-8.93,79.36-8.93c18.85,0,32.32,2.54,41.189,7.771
				c18.391,10.85,28.921,28.97,31.301,53.869L183.63,136.23z M105.76,203.17c44.55-12.75,65.78-34.45,64.891-66.33
				c-2.03-20.7-10.19-35-24.94-43.7c-6.72-3.96-18.36-5.97-34.59-5.97c-18.11,0-41.99,2.57-71.04,7.65l4.05,35.21l20.14-3.36
				l21.101,136.6l16.689-1.229l-1.109-57.49L105.76,203.17z"/>
			<path fill="#3BB4C1" d="M145.74,138.14c0.99,14.88-11.61,26.511-38.521,35.54l-7.81,2.62l-4.9-55.229l5.79-1.09
				c15.99-3.011,26.05-3.25,32.34-0.62c4.78,2,10.92,6.739,13.011,18.029L145.74,138.14z M110.88,158.48
				c11.41-4.62,22.12-11.11,21.91-19.131c-1.15-5.71-3.49-7.3-5.16-7.989c-0.71-0.301-2.47-0.801-6.3-0.801
				c-3.41,0-7.71,0.4-12.82,1.19L110.88,158.48z"/>
		</g>
	</g>
</g>
</svg>
