<?xml version="1.0" encoding="utf-8"?>
<!-- Generator: Adobe Illustrator 16.0.0, SVG Export Plug-In . SVG Version: 6.00 Build 0)  -->
<!DOCTYPE svg PUBLIC "-//W3C//DTD SVG 1.1//EN" "http://www.w3.org/Graphics/SVG/1.1/DTD/svg11.dtd">
<svg version="1.1" id="Calque_1" xmlns="http://www.w3.org/2000/svg" xmlns:xlink="http://www.w3.org/1999/xlink" x="0px" y="0px"
	 width="1080px" height="312px" viewBox="0 0 1080 312" enable-background="new 0 0 1080 312" xml:space="preserve">
<g>
	<g>
		<path fill="#3BB4C1" d="M58.846,134.166l-20.387,3.398l-5.537-48.071c60.823-11.074,99.52-11.724,116.089-1.95
			c16.568,9.773,25.943,26.07,28.126,48.889c1.089,35.068-22.107,59.396-69.591,72.988l1.133,58.643l-28.817,2.139L58.846,134.166z
			 M105.155,167.516c23.489-7.885,34.858-17.535,34.103-28.945c-1.258-6.795-4.3-11.199-9.123-13.213
			c-4.825-2.014-14.367-1.678-28.629,1.008L105.155,167.516z"/>
		<path fill="#3BB4C1" d="M291.526,121.016c13.758,13.299,20.638,29.303,20.638,48.01c0,18.793-6.88,34.838-20.638,48.133
			c-13.761,13.299-30.371,19.947-49.834,19.947c-19.464,0-36.075-6.648-49.833-19.947c-13.76-13.295-20.638-29.34-20.638-48.133
			c0-18.707,6.878-34.711,20.638-48.01c13.758-13.295,30.369-19.945,49.833-19.945C261.155,101.07,277.766,107.721,291.526,121.016z
			 M281.081,163.865c-4.278,4.027-9.396,6.041-15.353,6.041c-5.958,0-11.055-1.992-15.29-5.979
			c-4.237-3.982-6.354-8.787-6.354-14.408c0-5.619,2.117-10.402,6.354-14.346c4.235-3.943,9.332-5.914,15.29-5.914
			c1.174,0,2.265,0.084,3.271,0.25c-4.614-2.348-9.732-3.523-15.353-3.523c-9.313,0-17.262,3.209-23.847,9.627
			c-6.587,6.418-9.879,14.158-9.879,23.219s3.292,16.779,9.879,23.154c6.585,6.377,14.534,9.564,23.847,9.564
			s17.26-3.188,23.847-9.564c6.586-6.375,9.879-14.094,9.879-23.154c0-1.846-0.126-3.607-0.378-5.285
			C286.156,157.49,284.184,160.93,281.081,163.865z"/>
		<path fill="#3BB4C1" d="M297.943,111.768l-0.755-16.737l51.973-9.061l1.636,59.899l49.582-61.913l36.871,32.089l-54.615,62.67
			l79.406,51.721l-3.146,36.871l-95.388-65.311l0.378,61.41l-35.109,4.152l-8.558-158.309L297.943,111.768z"/>
		<path fill="#3BB4C1" d="M556.799,168.521l24.916,25.924c-15.855,22.82-38.34,34.271-67.449,34.354
			c-46.311,0-69.717-21.016-70.22-63.047c0.336-45.973,21.141-69.002,62.417-69.086c32.801,0.588,52.18,14.767,58.139,42.535
			l-59.648,48.07C529.197,189.957,546.48,183.707,556.799,168.521z M485.699,89.493l-9.69-13.968l31.838-33.727l19.632,30.328
			L485.699,89.493z M485.195,173.178l42.912-33.348c-13.088-11.326-26.26-12.5-39.514-3.523
			C476.595,147.631,475.463,159.924,485.195,173.178z"/>
		<path fill="#3BB4C1" d="M579.073,255.855l-2.769-131.002l-11.074-0.629l-2.769-28.188l120.053-12.711l-0.629,45.303l-67.451-1.635
			l0.504,29.32l45.429,5.033l-3.272,25.42l-44.799,6.041l-2.266,54.74L579.073,255.855z"/>
		<path fill="#3BB4C1" d="M667.791,81.188l40.898,4.908l-8.18,119.424l70.723-7.174l3.271,50.336l-113.257,4.404L667.791,81.188z"/>
		<path fill="#3BB4C1" d="M888.14,168.521l24.916,25.924c-15.855,22.82-38.34,34.271-67.45,34.354
			c-46.31,0-69.717-21.016-70.22-63.047c0.336-45.973,21.142-69.002,62.417-69.086c32.802,0.588,52.181,14.767,58.139,42.535
			l-59.648,48.07C860.537,189.957,877.82,183.707,888.14,168.521z M816.536,173.178l42.911-33.348
			c-13.087-11.326-26.259-12.5-39.514-3.523C807.936,147.631,806.803,159.924,816.536,173.178z"/>
		<path fill="#3BB4C1" d="M990.07,163.613l49.834,75.756l-40.27,25.42l-33.852-59.648l-34.732,59.146l-36.493-25.547l50.714-69.59
			l-33.6-59.145l28.691-22.148l30.328,46.184l35.738-48.952l26.427,5.536L990.07,163.613z"/>
	</g>
</g>
</svg>
