<?xml version="1.0" encoding="utf-8"?>
<!-- Generator: Adobe Illustrator 16.0.0, SVG Export Plug-In . SVG Version: 6.00 Build 0)  -->
<!DOCTYPE svg PUBLIC "-//W3C//DTD SVG 1.1//EN" "http://www.w3.org/Graphics/SVG/1.1/DTD/svg11.dtd">
<svg version="1.1" id="Calque_1" xmlns="http://www.w3.org/2000/svg" xmlns:xlink="http://www.w3.org/1999/xlink" x="0px" y="0px"
	 width="1080px" height="312px" viewBox="0 0 1080 312" enable-background="new 0 0 1080 312" xml:space="preserve">
<g>
	<path fill="#113F67" d="M241.445,243.5c-21.118,0-39.404-7.326-54.351-21.773c-15.009-14.503-22.62-32.27-22.62-52.807
		c0-20.451,7.61-38.177,22.62-52.684c14.95-14.447,33.236-21.771,54.351-21.771c21.112,0,39.398,7.325,54.351,21.771
		c15.011,14.51,22.621,32.235,22.621,52.685c0,20.535-7.61,38.302-22.621,52.807C280.847,236.175,262.561,243.5,241.445,243.5z
		 M241.445,107.465c-17.876,0-32.699,5.927-45.316,18.12c-12.552,12.132-18.654,26.307-18.654,43.335
		c0,17.114,6.102,31.33,18.654,43.458c12.615,12.194,27.438,18.122,45.316,18.122c17.876,0,32.699-5.928,45.317-18.121
		c12.553-12.131,18.654-26.346,18.654-43.459c0-10.322-2.243-19.598-6.807-28.005l-7.353-1.212l1.918,12.773
		c0.299,1.989,0.45,4.092,0.45,6.251c0,10.847-3.989,20.208-11.858,27.824c-7.81,7.561-17.354,11.395-28.367,11.395
		c-11.016,0-20.561-3.834-28.368-11.396c-7.867-7.614-11.857-16.976-11.857-27.823c0-10.839,3.984-20.217,11.843-27.874
		c7.81-7.612,17.359-11.472,28.383-11.472c6.626,0,12.783,1.423,18.3,4.23l13.308,6.771l1.145-5.38
		C273.666,113.204,259.032,107.465,241.445,107.465z M241.863,134.754c-2.8,1.277-5.38,3.076-7.772,5.408
		c-5.327,5.19-7.916,11.262-7.916,18.564c0,7.293,2.584,13.339,7.899,18.483c5.375,5.206,11.696,7.735,19.326,7.735
		c7.628,0,13.949-2.53,19.325-7.734c0.814-0.788,1.563-1.597,2.25-2.428c-2.967,1.01-6.136,1.518-9.494,1.518
		c-7.642,0-14.284-2.605-19.745-7.745c-5.572-5.237-8.399-11.679-8.399-19.142C237.337,143.944,238.855,139.034,241.863,134.754z
		 M265.481,135.654c-4.294,0-7.846,1.364-10.86,4.171c-2.923,2.72-4.284,5.767-4.284,9.588c0,3.838,1.368,6.911,4.306,9.672
		c3.015,2.837,6.559,4.215,10.839,4.215c4.277,0,7.842-1.398,10.897-4.274c2.132-2.017,3.448-4.29,4.012-6.938l2.914-13.698
		l-15.609-2.573C267.038,135.709,266.293,135.654,265.481,135.654z M290.259,133.053l5.117,2.603
		c-1.714-2.481-3.649-4.883-5.81-7.211L290.259,133.053z"/>
	<path fill="#113F67" d="M464.176,278.864l-94.34-64.594l0.338,54.803l-47.762,5.648l-8.56-158.344l-22.336,2.524l-1.326-29.398
		l65.016-11.334l1.357,49.687l42.728-53.354l46.886,40.804L392.2,177.243l76.401,49.764L464.176,278.864z M326.089,101.912
		l8.556,158.273l22.457-2.656l-0.418-68.018l96.436,66.027l1.867-21.885l-82.411-53.678l55.254-63.403l-26.856-23.374
		l-56.437,70.472l-1.914-70.112l-38.93,6.787l0.184,4.077L326.089,101.912z"/>
	<path fill="#113F67" d="M514.027,235.193h-0.009c-24.699,0-43.752-5.862-56.63-17.425c-13.058-11.724-19.816-29.234-20.09-52.044
		v-0.126c0.18-24.521,6.078-43.382,17.533-56.061c6.702-7.419,15.279-12.739,25.641-15.925l-13.058-18.82l41.142-43.582
		l28.366,43.822l-36.55,15.193c1.902-0.106,3.846-0.161,5.829-0.165l0.13,0.001c17.69,0.317,32.109,4.465,42.856,12.328
		c10.971,8.026,18.211,19.917,21.521,35.342l0.84,3.913l-48.638,39.198c12.652-1.477,21.941-6.776,28.264-16.08l4.506-6.632
		l34.163,35.544l-3.039,4.374c-17.063,24.56-41.547,37.057-72.769,37.145H514.027z M450.299,165.63
		c0.239,18.993,5.546,33.281,15.774,42.465c10.419,9.354,26.547,14.098,47.94,14.099c25.212-0.074,44.556-9.017,58.967-27.305
		l-15.987-16.633c-9.956,10.635-23.99,16.016-41.829,16.016c-0.001,0,0.001,0,0,0c-3.552,0-7.311-0.217-11.174-0.645l-15.525-1.721
		l68.591-55.276c-6.182-22.059-22.871-33.05-50.891-33.569c-18.859,0.05-32.497,5.02-41.688,15.192
		C455.233,128.485,450.463,144.423,450.299,165.63z M484.108,76.047l3.693,5.324l29.738-12.361l-10.897-16.834L484.108,76.047z
		 M483.662,182.304l-3.953-5.384c-11.608-15.81-10.125-31.949,4.177-45.446l0.381-0.36l0.436-0.294
		c6.928-4.692,14.054-7.072,21.178-7.072c8.926,0,17.752,3.722,26.234,11.062l5.991,5.185L483.662,182.304z M492.427,141.292
		c-7.446,7.198-9.312,14.227-5.698,22.165l30.275-23.527c-3.782-2.115-7.504-3.182-11.124-3.182
		C501.477,136.748,497.07,138.235,492.427,141.292z"/>
	<path fill="#113F67" d="M654.237,259.748l7.08-185.96l54.032,6.484l-8.075,117.897l69.76-7.076l4.142,63.719L654.237,259.748z
		 M673.771,88.376l-6.008,157.837l99.575-3.872l-2.401-36.954l-71.686,7.271l8.284-120.95L673.771,88.376z"/>
	<path fill="#113F67" d="M845.367,235.193h-0.009c-24.699,0-43.752-5.862-56.63-17.425c-13.058-11.724-19.816-29.234-20.09-52.044
		v-0.126c0.18-24.521,6.078-43.382,17.533-56.061c11.635-12.878,28.919-19.431,51.37-19.477l0.13,0.001
		c17.69,0.317,32.11,4.465,42.857,12.328c10.971,8.026,18.211,19.917,21.521,35.342l0.84,3.914l-48.639,39.197
		c12.653-1.477,21.943-6.776,28.266-16.08l4.506-6.632l34.163,35.544l-3.039,4.374c-17.063,24.56-41.547,37.057-72.77,37.145
		H845.367z M781.639,165.632c0.239,18.993,5.546,33.279,15.774,42.463c10.419,9.354,26.548,14.098,47.938,14.099
		c25.215-0.073,44.558-9.016,58.97-27.305l-15.987-16.633c-9.957,10.635-23.991,16.016-41.83,16.016c-0.001,0,0.001,0,0,0
		c-3.552,0-7.311-0.217-11.174-0.645l-15.525-1.721l68.591-55.276c-6.181-22.059-22.87-33.05-50.892-33.569
		c-18.858,0.05-32.495,5.02-41.686,15.192C786.573,128.485,781.803,144.425,781.639,165.632z M815.004,182.304l-3.954-5.384
		c-11.608-15.809-10.126-31.948,4.175-45.446l0.382-0.36l0.436-0.294c6.929-4.692,14.054-7.072,21.178-7.072
		c8.927,0,17.753,3.722,26.234,11.062l5.991,5.186L815.004,182.304z M823.767,141.292c-7.445,7.199-9.312,14.229-5.698,22.165
		l30.275-23.527c-3.781-2.115-7.503-3.182-11.124-3.182C832.816,136.748,828.411,138.235,823.767,141.292z"/>
	<path fill="#113F67" d="M997.097,273.816l-31.656-55.781l-32.597,55.509l-47.688-33.384l52.145-71.553l-34.314-60.403
		l38.713-29.885l29.029,44.205l32.68-44.764l39.38,8.25l-45.313,77.3l51.254,77.914L997.097,273.816z M965.632,192.035
		l36.047,63.516l28.908-18.248l-48.414-73.598l40.259-68.677l-13.474-2.822l-38.797,53.141l-31.627-48.162l-18.67,14.413
		l32.885,57.885l-49.284,67.627l25.299,17.71L965.632,192.035z"/>
	<g id="XMLID_1_">
		<g>
			<path fill="#113F67" d="M688.87,75.99l-0.82,59.19l-67.25-1.63l0.29,16.83l46.32,5.13l-4.75,36.931l-44.34,5.979l-2.24,54.061
				L572.5,264.18l-2.81-133.28l-10.631-0.61l-3.939-40.14L688.87,75.99z M675.23,121.87l0.439-31.41l-106.36,11.26l1.601,16.23
				l11.52,0.65l2.721,128.72l18.34-4.92l2.29-55.41l45.26-6.101l1.79-13.92l-44.54-4.93l-0.72-41.81L675.23,121.87z"/>
			<polygon fill="#FFFFFF" points="675.67,90.46 675.23,121.87 607.57,120.23 608.29,162.04 652.83,166.97 651.04,180.89 
				605.78,186.99 603.49,242.4 585.15,247.32 582.43,118.6 570.91,117.95 569.31,101.72 			"/>
		</g>
	</g>
	<g id="XMLID_4_">
		<g>
			<path fill="#FFFFFF" d="M170.4,136.74c0.89,31.88-20.33,53.569-64.891,66.33l-4.81,1.37l1.109,57.489l-16.689,1.24L64.02,126.57
				l-20.13,3.35l-4.06-35.21c29.05-5.07,52.93-7.65,71.04-7.65c16.229,0,27.87,2.01,34.59,5.98
				C160.21,101.74,168.37,116.03,170.4,136.74z M106.98,173.57c26.899-9.03,39.5-20.65,38.52-35.53l-0.1-0.76
				c-2.091-11.28-8.23-16.03-13.011-18.03c-6.29-2.62-16.35-2.39-32.33,0.62l-5.8,1.09l4.9,55.24L106.98,173.57z"/>
			<path fill="#113F67" d="M183.39,136.12c1.15,37.03-22.229,63.26-69.5,78.01l1.16,59.851L74.11,277.02L53.18,141.55l-20.64,3.44
				L25.52,84.08l5.99-1.09c32.54-5.92,59.24-8.93,79.36-8.93c18.85,0,32.33,2.55,41.2,7.78c18.38,10.84,28.91,28.97,31.29,53.87
				L183.39,136.12z M105.51,203.07c44.561-12.761,65.78-34.45,64.891-66.33c-2.03-20.71-10.19-35-24.94-43.7
				c-6.72-3.97-18.36-5.98-34.59-5.98c-18.11,0-41.99,2.58-71.04,7.65l4.06,35.21l20.13-3.35l21.101,136.6l16.689-1.24L100.7,204.44
				L105.51,203.07z"/>
			<path fill="#113F67" d="M145.5,138.04c0.98,14.88-11.62,26.5-38.52,35.53l-7.82,2.63l-4.9-55.24l5.8-1.09
				c15.98-3.01,26.04-3.24,32.33-0.62c4.78,2,10.92,6.75,13.011,18.03L145.5,138.04z M110.63,158.38
				c11.41-4.63,22.13-11.12,21.91-19.14c-1.15-5.7-3.48-7.29-5.16-7.99c-0.71-0.3-2.47-0.79-6.29-0.79c-3.42,0-7.72,0.4-12.83,1.19
				L110.63,158.38z"/>
		</g>
	</g>
</g>
</svg>
